<svg width="164" height="38" viewBox="0 0 164 38" fill="none" xmlns="http://www.w3.org/2000/svg">
<g filter="url(#filter0_dd_13001_399)">
<rect x="3.1" y="2.1" width="31.8" height="31.8" rx="7.9" fill="white"/>
<rect x="3.1" y="2.1" width="31.8" height="31.8" rx="7.9" fill="url(#paint0_linear_13001_399)"/>
<rect x="3.1" y="2.1" width="31.8" height="31.8" rx="7.9" stroke="#D0D5DD" stroke-width="0.2"/>
<path d="M18.3546 13.1828C22.7105 11.4504 27.4742 12.8185 29.6373 14.9133C30.106 15.3671 30.5041 15.8275 30.845 16.2852C31.0394 15.2107 31.0552 14.1405 30.8681 13.1055C30.1847 9.32649 26.6195 7.18561 23.4233 8.29149C20.2415 9.3924 19.0005 11.5321 19.0005 11.5321C19.0005 11.5321 17.7595 9.3924 14.5777 8.29149C11.3812 7.18561 7.81603 9.32672 7.1328 13.1055C6.62842 15.8944 7.58356 18.9392 9.61033 21.6298C10.0372 21.7732 10.4847 21.8809 10.9586 21.9431C13.7978 22.3163 14.8184 21.557 16.0178 21.0486C16.8142 20.7113 17.4134 21.0942 17.3843 21.3626C17.3392 21.7786 15.7693 22.4895 16.106 22.6388C17.4351 23.2285 19.0718 23.2334 20.3053 22.18C21.838 20.8712 22.4114 21.7659 22.4114 21.7659C22.4114 21.7659 21.6502 23.7076 19.3581 24.6717C17.4457 25.4761 15.4419 25.6743 13.6107 25.4683C15.19 26.5846 17.0035 27.5204 19.0005 28.1883C24.7099 26.2784 28.9276 22.1871 30.4145 17.9096C29.4072 16.9157 28.1716 16.2996 26.6988 16.0763C23.8674 15.6471 22.8322 16.3863 21.6228 16.8708C20.8198 17.1926 20.2285 16.7978 20.263 16.5299C20.3161 16.1148 21.8999 15.4351 21.5661 15.279C20.249 14.6633 18.6125 14.626 17.3585 15.6549C15.8003 16.9332 15.2446 16.0274 15.2446 16.0274C15.2446 16.0274 16.0438 14.1015 18.3546 13.1828ZM17.2709 18.5052H18.3709V17.4052H19.6296V18.5052H20.7296V19.7639H19.6296V20.8639H18.3709V19.7639H17.2709V18.5052Z" fill="url(#paint1_linear_13001_399)"/>
<path d="M17.2709 18.5052H18.3709V17.4052H19.6296V18.5052H20.7295V19.7639H19.6378C21.2597 20.5834 24.2383 21.8027 27.8177 22.3451C28.9956 20.9517 29.8813 19.4428 30.4143 17.9096C29.4069 16.9157 28.1713 16.2996 26.6986 16.0763C23.8672 15.647 22.8319 16.3863 21.6226 16.8708C20.8196 17.1926 20.2282 16.7978 20.2627 16.5299C20.3159 16.1148 21.8997 15.4351 21.5659 15.279C20.2488 14.6633 18.6123 14.626 17.3583 15.6548C15.8 16.9332 15.2443 16.0274 15.2443 16.0274C15.2443 16.0274 16.0438 14.1013 18.3543 13.1823C22.7102 11.4499 27.4739 12.818 29.637 14.9128C30.1057 15.3666 30.5038 15.8271 30.8447 16.2847C31.0392 15.2102 31.055 14.14 30.8679 13.105C30.1844 9.326 26.6192 7.18512 23.423 8.291C20.2412 9.39191 19.0002 11.5316 19.0002 11.5316C19.0002 11.5316 17.7592 9.39191 14.5774 8.291C12.7519 7.65927 10.8067 8.0883 9.34619 9.27521C10.0323 10.7442 10.836 12.1168 13.1254 14.8773C14.9868 17.1222 17.2709 18.5052 17.2709 18.5052Z" fill="url(#paint2_linear_13001_399)"/>
<path opacity="0.31" d="M27.277 9.64954C24.2712 8.13944 21.169 10.4892 20.1851 11.7299C21.882 11.3725 23.3668 11.1892 25.2457 11.5839C28.0252 12.1679 29.0654 13.1715 30.3064 14.6542C30.0871 11.9069 28.3519 10.1896 27.277 9.64954Z" fill="url(#paint3_linear_13001_399)"/>
</g>
<path d="M46.728 28V10.12H53.4C54.616 10.12 55.688 10.344 56.616 10.792C57.56 11.224 58.296 11.864 58.824 12.712C59.352 13.544 59.616 14.56 59.616 15.76C59.616 16.944 59.344 17.96 58.8 18.808C58.272 19.64 57.544 20.28 56.616 20.728C55.688 21.176 54.616 21.4 53.4 21.4H49.992V28H46.728ZM49.992 18.52H53.448C54.04 18.52 54.552 18.408 54.984 18.184C55.416 17.944 55.752 17.616 55.992 17.2C56.232 16.784 56.352 16.304 56.352 15.76C56.352 15.2 56.232 14.72 55.992 14.32C55.752 13.904 55.416 13.584 54.984 13.36C54.552 13.12 54.04 13 53.448 13H49.992V18.52ZM65.2131 28.288C64.3011 28.288 63.5091 28.136 62.8371 27.832C62.1651 27.528 61.6451 27.096 61.2771 26.536C60.9091 25.96 60.7251 25.296 60.7251 24.544C60.7251 23.824 60.8851 23.184 61.2051 22.624C61.5251 22.048 62.0211 21.568 62.6931 21.184C63.3651 20.8 64.2131 20.528 65.2371 20.368L69.5091 19.672V22.072L65.8371 22.696C65.2131 22.808 64.7491 23.008 64.4451 23.296C64.1411 23.584 63.9891 23.96 63.9891 24.424C63.9891 24.872 64.1571 25.232 64.4931 25.504C64.8451 25.76 65.2771 25.888 65.7891 25.888C66.4451 25.888 67.0211 25.752 67.5171 25.48C68.0291 25.192 68.4211 24.8 68.6931 24.304C68.9811 23.808 69.1251 23.264 69.1251 22.672V19.312C69.1251 18.752 68.9011 18.288 68.4531 17.92C68.0211 17.536 67.4451 17.344 66.7251 17.344C66.0531 17.344 65.4531 17.528 64.9251 17.896C64.4131 18.248 64.0371 18.72 63.7971 19.312L61.2291 18.064C61.4851 17.376 61.8851 16.784 62.4291 16.288C62.9891 15.776 63.6451 15.376 64.3971 15.088C65.1491 14.8 65.9651 14.656 66.8451 14.656C67.9171 14.656 68.8611 14.856 69.6771 15.256C70.4931 15.64 71.1251 16.184 71.5731 16.888C72.0371 17.576 72.2691 18.384 72.2691 19.312V28H69.2931V25.768L69.9651 25.72C69.6291 26.28 69.2291 26.752 68.7651 27.136C68.3011 27.504 67.7731 27.792 67.1811 28C66.5891 28.192 65.9331 28.288 65.2131 28.288ZM80.8926 28.144C79.4206 28.144 78.2766 27.744 77.4606 26.944C76.6606 26.128 76.2606 24.984 76.2606 23.512V17.752H74.0046V14.944H74.2446C74.8846 14.944 75.3806 14.776 75.7326 14.44C76.0846 14.104 76.2606 13.616 76.2606 12.976V11.968H79.4046V14.944H82.4046V17.752H79.4046V23.344C79.4046 23.776 79.4766 24.144 79.6206 24.448C79.7806 24.752 80.0206 24.984 80.3406 25.144C80.6766 25.304 81.1006 25.384 81.6126 25.384C81.7246 25.384 81.8526 25.376 81.9966 25.36C82.1566 25.344 82.3086 25.328 82.4526 25.312V28C82.2286 28.032 81.9726 28.064 81.6846 28.096C81.3966 28.128 81.1326 28.144 80.8926 28.144ZM84.8546 28V14.944H87.9986V28H84.8546ZM84.8546 13.48V10.12H87.9986V13.48H84.8546ZM97.0935 28.288C95.7495 28.288 94.5735 27.984 93.5655 27.376C92.5575 26.768 91.7735 25.944 91.2135 24.904C90.6535 23.864 90.3735 22.712 90.3735 21.448C90.3735 20.136 90.6535 18.976 91.2135 17.968C91.7895 16.944 92.5655 16.136 93.5415 15.544C94.5335 14.952 95.6375 14.656 96.8535 14.656C97.8775 14.656 98.7735 14.824 99.5415 15.16C100.326 15.496 100.99 15.96 101.534 16.552C102.078 17.144 102.494 17.824 102.782 18.592C103.07 19.344 103.214 20.16 103.214 21.04C103.214 21.264 103.198 21.496 103.166 21.736C103.15 21.976 103.11 22.184 103.046 22.36H92.9655V19.96H101.27L99.7815 21.088C99.9255 20.352 99.8855 19.696 99.6615 19.12C99.4535 18.544 99.1015 18.088 98.6055 17.752C98.1255 17.416 97.5415 17.248 96.8535 17.248C96.1975 17.248 95.6135 17.416 95.1015 17.752C94.5895 18.072 94.1975 18.552 93.9255 19.192C93.6695 19.816 93.5735 20.576 93.6375 21.472C93.5735 22.272 93.6775 22.984 93.9495 23.608C94.2375 24.216 94.6535 24.688 95.1975 25.024C95.7575 25.36 96.3975 25.528 97.1175 25.528C97.8375 25.528 98.4455 25.376 98.9415 25.072C99.4535 24.768 99.8535 24.36 100.142 23.848L102.686 25.096C102.43 25.72 102.03 26.272 101.486 26.752C100.942 27.232 100.294 27.608 99.5415 27.88C98.8055 28.152 97.9895 28.288 97.0935 28.288ZM105.597 28V14.944H108.549V17.512L108.309 17.056C108.613 16.272 109.109 15.68 109.797 15.28C110.501 14.864 111.317 14.656 112.245 14.656C113.205 14.656 114.053 14.864 114.789 15.28C115.541 15.696 116.125 16.28 116.541 17.032C116.957 17.768 117.165 18.624 117.165 19.6V28H114.021V20.344C114.021 19.768 113.909 19.272 113.685 18.856C113.461 18.44 113.149 18.12 112.749 17.896C112.365 17.656 111.909 17.536 111.381 17.536C110.869 17.536 110.413 17.656 110.013 17.896C109.613 18.12 109.301 18.44 109.077 18.856C108.853 19.272 108.741 19.768 108.741 20.344V28H105.597ZM125.775 28.144C124.303 28.144 123.159 27.744 122.343 26.944C121.543 26.128 121.143 24.984 121.143 23.512V17.752H118.887V14.944H119.127C119.767 14.944 120.263 14.776 120.615 14.44C120.967 14.104 121.143 13.616 121.143 12.976V11.968H124.287V14.944H127.287V17.752H124.287V23.344C124.287 23.776 124.359 24.144 124.503 24.448C124.663 24.752 124.903 24.984 125.223 25.144C125.559 25.304 125.983 25.384 126.495 25.384C126.607 25.384 126.735 25.376 126.879 25.36C127.039 25.344 127.191 25.328 127.335 25.312V28C127.111 28.032 126.855 28.064 126.567 28.096C126.279 28.128 126.015 28.144 125.775 28.144ZM134.849 28V23.344H130.193V20.632H134.849V16H137.561V20.632H142.193V23.344H137.561V28H134.849Z" fill="white"/>
<defs>
<filter id="filter0_dd_13001_399" x="0" y="0" width="38" height="38" filterUnits="userSpaceOnUse" color-interpolation-filters="sRGB">
<feFlood flood-opacity="0" result="BackgroundImageFix"/>
<feColorMatrix in="SourceAlpha" type="matrix" values="0 0 0 0 0 0 0 0 0 0 0 0 0 0 0 0 0 0 127 0" result="hardAlpha"/>
<feOffset dy="1"/>
<feGaussianBlur stdDeviation="1"/>
<feColorMatrix type="matrix" values="0 0 0 0 0.0627451 0 0 0 0 0.0941176 0 0 0 0 0.156863 0 0 0 0.06 0"/>
<feBlend mode="normal" in2="BackgroundImageFix" result="effect1_dropShadow_13001_399"/>
<feColorMatrix in="SourceAlpha" type="matrix" values="0 0 0 0 0 0 0 0 0 0 0 0 0 0 0 0 0 0 127 0" result="hardAlpha"/>
<feOffset dy="1"/>
<feGaussianBlur stdDeviation="1.5"/>
<feColorMatrix type="matrix" values="0 0 0 0 0.0627451 0 0 0 0 0.0941176 0 0 0 0 0.156863 0 0 0 0.1 0"/>
<feBlend mode="normal" in2="effect1_dropShadow_13001_399" result="effect2_dropShadow_13001_399"/>
<feBlend mode="normal" in="SourceGraphic" in2="effect2_dropShadow_13001_399" result="shape"/>
</filter>
<linearGradient id="paint0_linear_13001_399" x1="19" y1="2" x2="19" y2="34" gradientUnits="userSpaceOnUse">
<stop stop-color="white"/>
<stop offset="1" stop-color="#D0D5DD"/>
</linearGradient>
<linearGradient id="paint1_linear_13001_399" x1="10.1989" y1="24.2137" x2="27.8347" y2="6.57791" gradientUnits="userSpaceOnUse">
<stop stop-color="#0076C1"/>
<stop offset="0.0737" stop-color="#0B82C6"/>
<stop offset="0.2766" stop-color="#269ED3"/>
<stop offset="0.4546" stop-color="#36AFDA"/>
<stop offset="0.587" stop-color="#3CB5DD"/>
</linearGradient>
<linearGradient id="paint2_linear_13001_399" x1="10.1388" y1="24.2537" x2="27.8274" y2="6.56509" gradientUnits="userSpaceOnUse">
<stop stop-color="#00A482"/>
<stop offset="1" stop-color="#79DD83"/>
</linearGradient>
<linearGradient id="paint3_linear_13001_399" x1="24.8608" y1="13.5073" x2="28.5288" y2="10.1132" gradientUnits="userSpaceOnUse">
<stop stop-color="#00A482"/>
<stop offset="1" stop-color="#79DD83"/>
</linearGradient>
</defs>
</svg>
